<mxfile host="65bd71144e" modified="2020-10-17T06:48:30.214Z" agent="5.0 (Windows NT 10.0; Win64; x64) AppleWebKit/537.36 (KHTML, like Gecko) Code/1.50.1 Chrome/83.0.4103.122 Electron/9.2.1 Safari/537.36" etag="tEcp2r9BwYml6c_rxLbU" version="13.6.5">
    <diagram id="wcNPHPa_OG3zoomhGTeh" name="Page-1">
        <mxGraphModel dx="2655" dy="792" grid="1" gridSize="10" guides="1" tooltips="1" connect="1" arrows="1" fold="1" page="1" pageScale="1" pageWidth="827" pageHeight="1169" background="#114B5F" math="0" shadow="0">
            <root>
                <mxCell id="0"/>
                <mxCell id="1" parent="0"/>
                <mxCell id="4" style="edgeStyle=orthogonalEdgeStyle;curved=1;rounded=1;sketch=0;orthogonalLoop=1;jettySize=auto;html=1;strokeColor=#028090;fillColor=#F45B69;fontColor=#E4FDE1;entryX=0;entryY=0.5;entryDx=0;entryDy=0;" parent="1" source="2" target="3" edge="1">
                    <mxGeometry relative="1" as="geometry"/>
                </mxCell>
                <mxCell id="6" style="edgeStyle=orthogonalEdgeStyle;curved=1;rounded=1;sketch=0;orthogonalLoop=1;jettySize=auto;html=1;entryX=0;entryY=0.5;entryDx=0;entryDy=0;strokeColor=#028090;fillColor=#F45B69;fontColor=#E4FDE1;" parent="1" source="2" target="5" edge="1">
                    <mxGeometry relative="1" as="geometry"/>
                </mxCell>
                <mxCell id="9" style="edgeStyle=orthogonalEdgeStyle;curved=1;rounded=1;sketch=0;orthogonalLoop=1;jettySize=auto;html=1;entryX=0.005;entryY=0.469;entryDx=0;entryDy=0;entryPerimeter=0;strokeColor=#028090;fillColor=#F45B69;fontColor=#E4FDE1;" parent="1" source="2" target="8" edge="1">
                    <mxGeometry relative="1" as="geometry"/>
                </mxCell>
                <mxCell id="11" style="edgeStyle=orthogonalEdgeStyle;curved=1;rounded=1;sketch=0;orthogonalLoop=1;jettySize=auto;html=1;entryX=1;entryY=0.5;entryDx=0;entryDy=0;strokeColor=#028090;fillColor=#F45B69;fontColor=#E4FDE1;" parent="1" source="2" target="10" edge="1">
                    <mxGeometry relative="1" as="geometry"/>
                </mxCell>
                <mxCell id="13" style="edgeStyle=orthogonalEdgeStyle;curved=1;rounded=1;sketch=0;orthogonalLoop=1;jettySize=auto;html=1;strokeColor=#028090;fillColor=#F45B69;fontColor=#E4FDE1;" parent="1" source="2" target="12" edge="1">
                    <mxGeometry relative="1" as="geometry"/>
                </mxCell>
                <mxCell id="15" style="edgeStyle=orthogonalEdgeStyle;curved=1;rounded=1;sketch=0;orthogonalLoop=1;jettySize=auto;html=1;entryX=1;entryY=0.552;entryDx=0;entryDy=0;entryPerimeter=0;strokeColor=#028090;fillColor=#F45B69;fontColor=#E4FDE1;" parent="1" source="2" target="14" edge="1">
                    <mxGeometry relative="1" as="geometry"/>
                </mxCell>
                <mxCell id="2" value="&lt;span style=&quot;color: rgb(212 , 212 , 212) ; font-family: &amp;#34;sf mono&amp;#34; , &amp;#34;consolas&amp;#34; , &amp;#34;courier new&amp;#34; , monospace ; font-size: 47px&quot;&gt;&lt;font style=&quot;font-size: 47px&quot;&gt;&lt;span style=&quot;background-color: rgb(255 , 255 , 255)&quot;&gt;animal&lt;/span&gt;&lt;br&gt;&lt;/font&gt;&lt;/span&gt;&lt;br&gt;&lt;br&gt;nombre&lt;br&gt;edad&lt;br&gt;altura&lt;br&gt;sexo" style="rounded=0;whiteSpace=wrap;html=1;sketch=0;strokeColor=#028090;fillColor=#F45B69;fontColor=#E4FDE1;align=left;" parent="1" vertex="1">
                    <mxGeometry x="100" y="320" width="210" height="290" as="geometry"/>
                </mxCell>
                <mxCell id="3" value="&lt;span style=&quot;background-color: rgb(30 , 30 , 30) ; color: rgb(212 , 212 , 212) ; font-family: &amp;#34;sf mono&amp;#34; , &amp;#34;consolas&amp;#34; , &amp;#34;courier new&amp;#34; , monospace ; font-size: 47px&quot;&gt;&lt;font style=&quot;font-size: 47px&quot;&gt;perro&lt;br&gt;&lt;/font&gt;&lt;/span&gt;&lt;br&gt;&lt;br&gt;nombre&lt;br&gt;edad&lt;br&gt;altura&lt;br&gt;sexo&lt;br&gt;&lt;br&gt;ladrar()" style="rounded=0;whiteSpace=wrap;html=1;sketch=0;strokeColor=#028090;fillColor=#F45B69;fontColor=#E4FDE1;align=left;" parent="1" vertex="1">
                    <mxGeometry x="470" y="20" width="210" height="290" as="geometry"/>
                </mxCell>
                <mxCell id="5" value="&lt;span style=&quot;background-color: rgb(30 , 30 , 30) ; color: rgb(212 , 212 , 212) ; font-family: &amp;#34;sf mono&amp;#34; , &amp;#34;consolas&amp;#34; , &amp;#34;courier new&amp;#34; , monospace ; font-size: 47px&quot;&gt;&lt;font style=&quot;font-size: 47px&quot;&gt;gato&lt;br&gt;&lt;/font&gt;&lt;/span&gt;&lt;br&gt;&lt;br&gt;nombre&lt;br&gt;edad&lt;br&gt;altura&lt;br&gt;sexo&lt;br&gt;arisquedad&lt;br&gt;&lt;br&gt;miau()" style="rounded=0;whiteSpace=wrap;html=1;sketch=0;strokeColor=#028090;fillColor=#F45B69;fontColor=#E4FDE1;align=left;" parent="1" vertex="1">
                    <mxGeometry x="470" y="660" width="210" height="290" as="geometry"/>
                </mxCell>
                <mxCell id="8" value="&lt;font color=&quot;#d4d4d4&quot; face=&quot;sf mono, consolas, courier new, monospace&quot;&gt;&lt;span style=&quot;font-size: 47px ; background-color: rgb(30 , 30 , 30)&quot;&gt;canario&lt;br&gt;&lt;br&gt;&lt;/span&gt;&lt;/font&gt;nombre&lt;br&gt;edad&lt;br&gt;altura&lt;br&gt;sexo&lt;br&gt;&lt;br&gt;cantar()&lt;font color=&quot;#d4d4d4&quot; face=&quot;sf mono, consolas, courier new, monospace&quot;&gt;&lt;span style=&quot;font-size: 47px ; background-color: rgb(30 , 30 , 30)&quot;&gt;&lt;br&gt;&lt;/span&gt;&lt;/font&gt;" style="rounded=0;whiteSpace=wrap;html=1;sketch=0;strokeColor=#028090;fillColor=#F45B69;fontColor=#E4FDE1;align=left;" parent="1" vertex="1">
                    <mxGeometry x="470" y="340" width="210" height="290" as="geometry"/>
                </mxCell>
                <mxCell id="10" value="&lt;span style=&quot;background-color: rgb(30 , 30 , 30) ; color: rgb(212 , 212 , 212) ; font-family: &amp;#34;sf mono&amp;#34; , &amp;#34;consolas&amp;#34; , &amp;#34;courier new&amp;#34; , monospace ; font-size: 47px&quot;&gt;&lt;font style=&quot;font-size: 47px&quot;&gt;perro&lt;br&gt;&lt;/font&gt;&lt;/span&gt;&lt;br&gt;&lt;br&gt;nombre&lt;br&gt;edad&lt;br&gt;altura&lt;br&gt;sexo&lt;br&gt;&lt;br&gt;ladrar()" style="rounded=0;whiteSpace=wrap;html=1;sketch=0;strokeColor=#028090;fillColor=#F45B69;fontColor=#E4FDE1;align=left;" parent="1" vertex="1">
                    <mxGeometry x="-260" y="20" width="210" height="290" as="geometry"/>
                </mxCell>
                <mxCell id="12" value="&lt;span style=&quot;background-color: rgb(30 , 30 , 30) ; color: rgb(212 , 212 , 212) ; font-family: &amp;#34;sf mono&amp;#34; , &amp;#34;consolas&amp;#34; , &amp;#34;courier new&amp;#34; , monospace ; font-size: 47px&quot;&gt;&lt;font style=&quot;font-size: 47px&quot;&gt;perro&lt;br&gt;&lt;/font&gt;&lt;/span&gt;&lt;br&gt;&lt;br&gt;nombre&lt;br&gt;edad&lt;br&gt;altura&lt;br&gt;sexo&lt;br&gt;&lt;br&gt;ladrar()" style="rounded=0;whiteSpace=wrap;html=1;sketch=0;strokeColor=#028090;fillColor=#F45B69;fontColor=#E4FDE1;align=left;" parent="1" vertex="1">
                    <mxGeometry x="-260" y="340" width="210" height="290" as="geometry"/>
                </mxCell>
                <mxCell id="14" value="&lt;span style=&quot;background-color: rgb(30 , 30 , 30) ; color: rgb(212 , 212 , 212) ; font-family: &amp;#34;sf mono&amp;#34; , &amp;#34;consolas&amp;#34; , &amp;#34;courier new&amp;#34; , monospace ; font-size: 47px&quot;&gt;&lt;font style=&quot;font-size: 47px&quot;&gt;gato&lt;br&gt;&lt;/font&gt;&lt;/span&gt;&lt;br&gt;&lt;br&gt;nombre&lt;br&gt;edad&lt;br&gt;altura&lt;br&gt;sexo&lt;br&gt;arisquedad&lt;br&gt;&lt;br&gt;miau()" style="rounded=0;whiteSpace=wrap;html=1;sketch=0;strokeColor=#028090;fillColor=#F45B69;fontColor=#E4FDE1;align=left;" parent="1" vertex="1">
                    <mxGeometry x="-260" y="660" width="210" height="290" as="geometry"/>
                </mxCell>
            </root>
        </mxGraphModel>
    </diagram>
</mxfile>